<svg xmlns="http://www.w3.org/2000/svg" xmlns:xlink="http://www.w3.org/1999/xlink" width="513" height="513" aria-labelledby="favicontitleId favicondescId"><title id="favicontitleId">Icono con el logotipo del balonmano vetusta</title><desc id="favicondescId">Icono para las barras de navegadores y favoritos con el logotipo del Club Balonmano Vetusta en el interior en negro y sombreado, rodeado de un ovalo amarillo.</desc><style><![CDATA[.B{fill:#000}.C{fill:#151111}.D{filter:url(#B)}]]></style><defs><filter x="-11.3%" y="-15.6%" width="133.8%" height="140.1%" id="A"><feMorphology radius="2.5" operator="dilate" in="SourceAlpha"/><feOffset dx="15" dy="10"/><feGaussianBlur stdDeviation="10"/><feColorMatrix values="0 0 0 0 0   0 0 0 0 0   0 0 0 0 0  0 0 0 0.5 0"/></filter><filter x="-183.1%" y="-117.9%" width="649.3%" height="403.1%" id="B"><feMorphology radius="2.5" operator="dilate" in="SourceAlpha"/><feOffset dx="15" dy="10"/><feGaussianBlur stdDeviation="10"/><feColorMatrix values="0 0 0 0 0   0 0 0 0 0   0 0 0 0 0  0 0 0 0.5 0"/></filter><filter x="-176.5%" y="-117.9%" width="625.5%" height="403.1%" id="C"><feMorphology radius="2.5" operator="dilate" in="SourceAlpha"/><feOffset dx="15" dy="10"/><feGaussianBlur stdDeviation="10"/><feColorMatrix values="0 0 0 0 0   0 0 0 0 0   0 0 0 0 0  0 0 0 0.5 0"/></filter><filter x="-266.3%" y="-117.9%" width="899%" height="403.1%" id="D"><feMorphology radius="2.5" operator="dilate" in="SourceAlpha"/><feOffset dx="15" dy="10"/><feGaussianBlur stdDeviation="10"/><feColorMatrix values="0 0 0 0 0   0 0 0 0 0   0 0 0 0 0  0 0 0 0.5 0"/></filter><filter x="-195.3%" y="-117.9%" width="686%" height="403.1%" id="E"><feMorphology radius="2.5" operator="dilate" in="SourceAlpha"/><feOffset dx="15" dy="10"/><feGaussianBlur stdDeviation="10"/><feColorMatrix values="0 0 0 0 0   0 0 0 0 0   0 0 0 0 0  0 0 0 0.5 0"/></filter><filter x="-139.5%" y="-117.9%" width="518.5%" height="403.1%" id="F"><feMorphology radius="2.5" operator="dilate" in="SourceAlpha"/><feOffset dx="15" dy="10"/><feGaussianBlur stdDeviation="10"/><feColorMatrix values="0 0 0 0 0   0 0 0 0 0   0 0 0 0 0  0 0 0 0.5 0"/></filter><filter x="-63.5%" y="-29.5%" width="289.3%" height="175.8%" id="G"><feMorphology radius="2.5" operator="dilate" in="SourceAlpha"/><feOffset dx="15" dy="10"/><feGaussianBlur stdDeviation="10"/><feColorMatrix values="0 0 0 0 0   0 0 0 0 0   0 0 0 0 0  0 0 0 0.5 0"/></filter><filter x="-91.6%" y="-29.5%" width="374.7%" height="175.8%" id="H"><feMorphology radius="2.5" operator="dilate" in="SourceAlpha"/><feOffset dx="15" dy="10"/><feGaussianBlur stdDeviation="10"/><feColorMatrix values="0 0 0 0 0   0 0 0 0 0   0 0 0 0 0  0 0 0 0.5 0"/></filter><filter x="-75.1%" y="-29.5%" width="325.4%" height="175.8%" id="I"><feMorphology radius="2.5" operator="dilate" in="SourceAlpha"/><feOffset dx="15" dy="10"/><feGaussianBlur stdDeviation="10"/><feColorMatrix values="0 0 0 0 0   0 0 0 0 0   0 0 0 0 0  0 0 0 0.5 0"/></filter><filter x="-65.1%" y="-29.5%" width="295.4%" height="175.8%" id="J"><feMorphology radius="2.5" operator="dilate" in="SourceAlpha"/><feOffset dx="15" dy="10"/><feGaussianBlur stdDeviation="10"/><feColorMatrix values="0 0 0 0 0   0 0 0 0 0   0 0 0 0 0  0 0 0 0.5 0"/></filter><filter x="-65.1%" y="-29.5%" width="295.3%" height="175.8%" id="K"><feMorphology radius="2.5" operator="dilate" in="SourceAlpha"/><feOffset dx="15" dy="10"/><feGaussianBlur stdDeviation="10"/><feColorMatrix values="0 0 0 0 0   0 0 0 0 0   0 0 0 0 0  0 0 0 0.5 0"/></filter><filter x="-59.6%" y="-29.7%" width="277.9%" height="176.4%" id="L"><feMorphology radius="2.5" operator="dilate" in="SourceAlpha"/><feOffset dx="15" dy="10"/><feGaussianBlur stdDeviation="10"/><feColorMatrix values="0 0 0 0 0   0 0 0 0 0   0 0 0 0 0  0 0 0 0.5 0"/></filter><filter x="-9%" y="-26.3%" width="127%" height="167.6%" id="M"><feMorphology radius="2.5" operator="dilate" in="SourceAlpha"/><feOffset dx="15" dy="10"/><feGaussianBlur stdDeviation="10"/><feColorMatrix values="0 0 0 0 0   0 0 0 0 0   0 0 0 0 0  0 0 0 0.5 0"/></filter><path d="M386.854 216.623l-8.047-3.958-19.013-22.427a4.1 4.1 0 0 0-1.404-1.066l-10.949-5.065v-7.827c0-1.73-1.123-3.267-2.791-3.818s-3.511.005-4.572 1.384l-3.104 4.021-24.432-120.401c-.319-1.57-1.551-2.804-3.142-3.148-.949-.202-1.913-.068-2.741.348l-3.324-8.276c-.623-1.551-2.132-2.545-3.848-2.55a4.16 4.16 0 0 0-1.692.375L281.84 2.607c-.625-1.631-2.225-2.673-4.02-2.604-1.771.08-3.291 1.269-3.765 2.949l-10.814 38.331a4.16 4.16 0 0 0-3.094-.375c-1.614.435-2.797 1.79-2.989 3.424l-12.606 107.356-57.94 3.264c-2.051.115-3.698 1.704-3.853 3.718l-1.904 24.662-3.72-4.569c-.729-.895-1.809-1.442-2.974-1.506a4.13 4.13 0 0 0-3.124 1.175l-7.166 7.044-8.309.743c-.817.073-1.594.385-2.228.895-11.124 8.956-21.102 19.294-29.657 30.725-1.341 1.792-.95 4.314.873 5.632s4.39.934 5.73-.858a162.92 162.92 0 0 1 27.285-28.482l8.525-.763c.956-.084 1.851-.496 2.528-1.163l4.978-4.894 3.401 4.177a4.11 4.11 0 0 0 2.828 1.495l4.303.385a4.13 4.13 0 0 0 3.019-.935c.838-.697 1.358-1.695 1.44-2.771l2.075-26.868 57.846-3.258c2.022-.114 3.658-1.665 3.846-3.65l.177-1.873 11.774-100.267c.506.098 1.037.104 1.562.003 1.529-.288 2.76-1.404 3.177-2.879L278.599 17l14.743 38.444c.602 1.569 2.129 2.608 3.835 2.608a4.15 4.15 0 0 0 1.854-.435l2.549 6.346c.549 1.367 1.812 2.332 3.295 2.517.381.047.763.042 1.135-.013l24.705 121.754c.316 1.555 1.529 2.782 3.102 3.138s3.207-.229 4.184-1.492l1.464-1.897a4.06 4.06 0 0 0 2.132 2.339l12.481 5.774 18.978 22.388c.363.426.811.774 1.316 1.022l8.814 4.336a4.15 4.15 0 0 0 1.831.427 4.11 4.11 0 0 0 3.669-2.228c1.013-1.99.193-4.409-1.832-5.405" id="N"/><path d="M176.444 212.496h-1.36v9.874l.681.075.533-.075.681-.148.292-.446v-8.203l-.097-.631-.73-.446zm.682-11.545l-.583-.409-.73-.075h-.729v7.685h1.214l.583-.222.293-.409.097-.704v-5.31l-.145-.556zm5.785-3.193c.486.372.858.867 1.117 1.485l.292 2.6v3.97c0 2.376-1.02 3.85-3.062 4.419.679.221 1.134.433 1.36.63.779.496 1.28 1.065 1.509 1.708.128.446.193 1.201.193 2.264v7.016c0 .644-.163 1.361-.486 2.152-.162.447-.584.905-1.263 1.374-.65.323-1.379.546-2.189.669l-4.279.259h-8.167v-29.696h9.141l3.695.26 2.139.89h0z" id="O"/><path d="M197.192 202.51h-.191l-1.09 13.476h2.323l-1.042-13.476zm1.849 23.794l-.522-6.347h-2.893l-.474 6.347h-6.736l4.033-29.696h9.202l4.173 29.696h-6.783 0z" id="P"/><path id="Q" d="M220.16 222.37v3.934h-11.264v-29.696h6.979v25.762h4.285"/><path d="M232.94 201.396l-.187-.481-.42-.335-.513-.075h-.141l-.513.186-.14 21.308.326.298.654.108.235-.073.419-.148.28-20.788zm5.749-3.378c.62.768.927 2.253.927 4.456v20.044l-.468 1.782c-.466 1.089-1.523 1.683-3.173 1.782l-3.969.222-2.707-.035-2.428-.41c-.624-.149-1.168-.458-1.634-.929-.561-.469-.841-.952-.841-1.447l-.14-23.237c.124-.618.278-1.176.463-1.671.466-1.064 1.547-1.646 3.25-1.745l3.943-.222 2.693.111c.649.026 1.237.088 1.764.186 1.143.173 1.917.546 2.32 1.113h0z" id="R"/><path id="S" d="M259.072 196.608v29.696h-6.3l-3.848-15.21-.182-.009.241 15.219h-6.295v-29.696h6.295l3.795 14.812h.337v-14.812h5.958"/><path id="T" d="M284.672 196.608v29.696h-6.11l.19-17.557h-.19l-2.748 17.557h-3.694l-2.746-17.557h-.239l.239 17.557h-6.206v-29.696h8.078l2.564 14.251h.271l2.611-14.251h7.981"/><path d="M297.543 202.51h-.19l-1.089 13.476h2.322l-1.043-13.476zm1.851 23.794l-.523-6.347h-2.894l-.473 6.347h-6.736l4.031-29.696h9.204l4.173 29.696h-6.782 0z" id="U"/><path id="V" d="M326.656 196.608v29.696h-6.3l-3.848-15.21-.181-.009.24 15.219h-6.295v-29.696h6.295l3.794 14.812h.338v-14.812h5.957"/><path d="M338.413 201.396l-.188-.481-.42-.335-.512-.075h-.14l-.515.186-.14 21.308.325.298.654.108.236-.073.418-.148.282-20.788zm5.746-3.378c.62.768.929 2.253.929 4.456v20.044l-.469 1.782c-.464 1.089-1.522 1.683-3.172 1.782l-3.97.222-2.707-.035-2.428-.41c-.624-.149-1.167-.458-1.633-.929-.561-.469-.841-.952-.841-1.447l-.14-23.237c.123-.618.278-1.176.464-1.671.463-1.064 1.546-1.646 3.25-1.745l3.942-.222 2.692.111c.65.026 1.237.088 1.764.186 1.145.173 1.917.546 2.319 1.113h0z" id="W"/><path id="X" d="M126.976 230.4l-12.513 118.784H91.224L78.848 230.4h18.977l4.537 80.329h.549l5.225-80.329h18.839"/><path id="Y" d="M169.984 276.281v15.441h-12.183v41.723h12.183v15.739h-32.768V230.4h32.768v15.442h-12.183v30.439h12.183"/><path id="Z" d="M208.231 246.138v103.046h-20.173V246.138h-9.881V230.4h39.936v15.738h-9.881"/><path d="M273.408 230.4l-.829 107.351-1.931 5.493c-1.29 2.279-3.036 3.664-5.243 4.158l-7.863 1.632-7.037.15-11.864-.594c-1.931-.098-3.911-.865-5.933-2.301s-3.221-3.045-3.587-4.827l-1.793-6.978V230.4h19.728l.966 102.154 1.518.891h.826l1.382-.297 1.103-.743.414-102.005h20.143" id="a"/><path d="M318.87 230.994c5.103 1.091 8.212 3.514 9.327 7.276l1.531 7.424v25.686h-19.926v-20.49l-.277-2.525-.691-1.633-1.386-.594h-.968l-1.383.15-.969.89-.415 1.781v22.865c.278 1.387 1.014 2.426 2.214 3.117l2.214 1.781 12.039 6.98c6.27 3.465 9.453 8.118 9.548 13.958v28.36c0 5.049-.276 9.058-.83 12.027l-1.8 5.643c-1.106 1.882-2.815 3.268-5.118 4.158l-7.335 1.336-19.788-.445-5.95-2.228c-1.754-1.385-3-3.118-3.736-5.196l-1.523-7.87v-33.408h20.065v28.657l.415 2.969.554 1.335 1.937.745.415.147 1.522-.445.83-1.04.416-1.932v-29.415l-1.657-2.825-2.622-1.929-13.029-7.382c-5.899-3.366-8.846-8.615-8.846-15.743V253.72c0-5.346.232-9.359.697-12.031l1.809-5.644c1.763-2.376 3.71-3.763 5.847-4.16l7.796-1.337 7.239-.148 11.834.594" id="b"/><path id="c" d="M370.022 246.138v103.046H349.85V246.138h-9.882V230.4h39.936v15.738h-9.882"/><path d="M407.761 253.805h-.557l-3.21 53.434h6.836l-3.069-53.434zm5.441 94.355l-1.535-25.172h-8.51l-1.394 25.172h-19.811L393.81 230.4h27.064l12.278 117.76h-19.95 0z" id="d"/><path d="M324.295 465.705l23.339-25.401 46.663-34.691c-16.887 26.29-41.25 47.14-70.002 60.092zM127.39 419.136l20.803-3.387.446-.074 57.304 29.69 24.298 31.008-.567.525-1.312 1.211a166.31 166.31 0 0 1-40.642-12.369c-23.618-10.636-44.353-26.675-60.33-46.604zm200.265 30.912l-19.975 21.74-69.939.973-23.529-30.026 43.762-38.273 60.894-3.388.331-.018 20.636 35.736-12.18 13.256zm92.149-94.6c-2.197-.536-4.416.777-4.961 2.93-2.462 9.719-5.877 19.277-10.154 28.412-1.809 3.873-3.812 7.736-5.971 11.521l-.372-.167 1.459-38.648c.084-2.217-1.681-4.082-3.94-4.164-.074-.004-.143.012-.216.014-.033-.002-.064-.013-.098-.014-2.237-.084-4.159 1.648-4.243 3.867l-1.475 39.074-43.609 32.421-19.754-34.205 18.41-35.312c1.031-1.975.235-4.395-1.778-5.407-.546-.273-1.123-.405-1.698-.428-1.598-.121-3.186.688-3.961 2.176l-18.512 35.505-60.478 3.363-26.039-39.231c-1.234-1.86-3.77-2.385-5.665-1.174s-2.43 3.699-1.196 5.559l25.412 38.288-42.923 37.538-54.393-28.18 4.493-49.482c.201-2.21-1.463-4.162-3.716-4.359s-4.239 1.436-4.441 3.646l-4.445 48.96-24.092 3.287c-11.31-16.044-19.478-33.815-24.291-52.858-.544-2.153-2.762-3.465-4.959-2.932s-3.532 2.714-2.989 4.866a166.93 166.93 0 0 0 26.995 57.575c.007.01.016.019.024.029.118.169.239.338.364.505l.138.182c17.276 23.487 40.642 42.311 67.575 54.44 14.28 6.431 29.332 10.913 44.74 13.319 8.841 1.382 17.866 2.084 26.824 2.084 18.657 0 37.123-2.976 54.883-8.842a4.48 4.48 0 0 0 .269-.091c39.094-12.98 72.085-39.246 92.912-73.981 3.011-5.016 5.771-10.196 8.199-15.392 4.487-9.586 8.073-19.621 10.658-29.826.546-2.152-.792-4.332-2.986-4.868h0z" id="e"/></defs><g transform="translate(.5 .5)"><svg width="512" height="512" stroke="initial" fill="initial" fill-rule="initial"><g stroke="none" fill-rule="evenodd"><ellipse stroke="#151111" stroke-width="3.072" fill="#fff34f" cx="256.512" cy="256" rx="207.872" ry="254.464" stroke-linejoin="initial"/><use filter="url(#A)" xlink:href="#N" class="B"/><use xlink:href="#N" class="C"/><use xlink:href="#O" class="B D"/><use xlink:href="#O" class="C"/><use filter="url(#C)" xlink:href="#P" class="B"/><use xlink:href="#P" class="C"/><use filter="url(#D)" xlink:href="#Q" class="B"/><use xlink:href="#Q" class="C"/><use filter="url(#E)" xlink:href="#R" class="B"/><use xlink:href="#R" class="C"/><use xlink:href="#S" class="B D"/><use xlink:href="#S" class="C"/><use filter="url(#F)" xlink:href="#T" class="B"/><use xlink:href="#T" class="C"/><use filter="url(#C)" xlink:href="#U" class="B"/><use xlink:href="#U" class="C"/><use xlink:href="#V" class="B D"/><use xlink:href="#V" class="C"/><use filter="url(#E)" xlink:href="#W" class="B"/><use xlink:href="#W" class="C"/><use filter="url(#G)" xlink:href="#X" class="B"/><use xlink:href="#X" class="C"/><use filter="url(#H)" xlink:href="#Y" class="B"/><use xlink:href="#Y" class="C"/><use filter="url(#I)" xlink:href="#Z" class="B"/><use xlink:href="#Z" class="C"/><use filter="url(#J)" xlink:href="#a" class="B"/><use xlink:href="#a" class="C"/><use filter="url(#K)" xlink:href="#b" class="B"/><use xlink:href="#b" class="C"/><use filter="url(#I)" xlink:href="#c" class="B"/><use xlink:href="#c" class="C"/><use filter="url(#L)" xlink:href="#d" class="B"/><use xlink:href="#d" class="C"/><use filter="url(#M)" xlink:href="#e" class="B"/><use xlink:href="#e" class="C"/></g></svg></g></svg>