<svg
xmlns="http://www.w3.org/2000/svg" fill="none"
width="100%"
height="100%"
title="Escudo del Club BalonmanoVetusta"
description="Escudo del Club BalonmanoVetusta"
viewBox="0 0 346 477"
>
  <g fillRule="evenodd">
    <path fill="#FCEB00" d="M47 225 34.78 341H12.086L0 225h18.532l4.431 78.446h.537L28.602 225H47M89 269.805v15.08H77.103v40.745H89V341H57V225h32v15.08H77.103v29.725H89M126.35 240.37V341h-19.7V240.37H97V225h39v15.37h-9.65M190 225l-.81 104.835-1.885 5.365c-1.26 2.225-2.965 3.577-5.12 4.06l-7.679 1.594-6.872.146-11.586-.58c-1.886-.096-3.82-.844-5.794-2.247-1.977-1.401-3.146-2.973-3.503-4.714L145 326.645V225h19.266l.943 99.76 1.482.87h.808l1.348-.29 1.078-.725.404-99.615H190M234.396 225.58c4.984 1.065 8.02 3.432 9.109 7.106l1.495 7.25v25.083h-19.46v-20.01l-.27-2.465-.675-1.595-1.352-.58h-.946l-1.35.146-.947.87-.405 1.74v22.328c.27 1.355.99 2.37 2.161 3.044l2.163 1.74 11.757 6.816c6.122 3.384 9.231 7.927 9.324 13.63v27.696c0 4.93-.27 8.846-.81 11.745l-1.758 5.51c-1.08 1.838-2.75 3.192-4.999 4.06L230.27 341l-19.324-.435-5.81-2.175c-1.713-1.353-2.93-3.045-3.649-5.075L200 325.63v-32.625h19.595v27.985l.405 2.9.541 1.304 1.892.727.405.144 1.486-.435.811-1.015.406-1.887v-28.726l-1.618-2.759-2.561-1.884-12.724-7.209c-5.76-3.287-8.638-8.412-8.638-15.374v-19.002c0-5.222.226-9.14.68-11.75l1.767-5.512c1.722-2.32 3.623-3.674 5.71-4.062l7.614-1.305 7.07-.145 11.555.58M284.35 240.37V341h-19.7V240.37H255V225h39v15.37h-9.65M321.204 247.856h-.544l-3.134 52.182h6.675l-2.997-52.182ZM326.518 340l-1.5-24.582h-8.31L315.346 340H296l11.58-115h26.43L346 340h-19.482ZM239.695 454.79l22.791-24.806 45.57-33.878c-16.492 25.674-40.284 46.036-68.361 58.684ZM47.404 409.312l20.315-3.307.436-.072 55.961 28.994 23.728 30.281-.553.512-1.28 1.183a162.423 162.423 0 0 1-39.69-12.079c-23.065-10.387-43.315-26.05-58.917-45.512ZM242.975 439.5l-19.507 21.23-68.3.95-22.977-29.322 42.736-37.376 59.468-3.308.323-.017 20.152 34.898-11.895 12.945Zm89.99-92.383c-2.146-.523-4.313.759-4.845 2.861a155.853 155.853 0 0 1-9.916 27.747 156.024 156.024 0 0 1-5.831 11.25l-.363-.162 1.424-37.743c.082-2.165-1.641-3.986-3.847-4.066-.072-.004-.14.012-.211.014-.032-.002-.062-.013-.096-.014-2.184-.082-4.061 1.61-4.143 3.777l-1.44 38.157L261.11 420.6l-19.291-33.404 17.978-34.484c1.007-1.929.23-4.293-1.737-5.28a4.041 4.041 0 0 0-1.657-.418c-1.562-.119-3.112.672-3.869 2.124l-18.078 34.673-59.06 3.284-25.43-38.31c-1.204-1.817-3.68-2.33-5.531-1.147-1.85 1.183-2.373 3.612-1.169 5.428l24.817 37.391-41.917 36.658-53.118-27.52 4.387-48.322c.196-2.158-1.428-4.064-3.628-4.256-2.198-.19-4.14 1.401-4.337 3.56l-4.341 47.813L41.6 401.6a155.246 155.246 0 0 1-23.721-51.62c-.532-2.102-2.698-3.383-4.843-2.863-2.143.522-3.45 2.65-2.919 4.752 5.138 20.331 14.008 39.248 26.362 56.226.007.01.016.019.024.028.115.165.233.33.355.493l.135.178a.014.014 0 0 1 .003.004c16.868 22.932 39.687 41.315 65.988 53.16a170.45 170.45 0 0 0 43.692 13.007h.003A170.181 170.181 0 0 0 172.872 477h.001c18.219 0 36.252-2.906 53.596-8.635.088-.028.176-.055.262-.088 38.178-12.677 70.396-38.327 90.735-72.247 0-.001 0-.002.002-.003a165.3 165.3 0 0 0 8.004-15.03 163.715 163.715 0 0 0 10.409-29.126c.533-2.102-.774-4.23-2.916-4.754ZM300.788 211.546l-7.86-3.865-18.566-21.902a3.999 3.999 0 0 0-1.371-1.04l-10.693-4.947v-7.643c0-1.69-1.097-3.191-2.726-3.729a4.038 4.038 0 0 0-4.465 1.351l-3.03 3.927-23.86-117.58c-.311-1.532-1.515-2.737-3.068-3.073a4.067 4.067 0 0 0-2.677.34l-3.246-8.083c-.608-1.514-2.082-2.484-3.758-2.49a4.07 4.07 0 0 0-1.653.367l-15.58-40.633c-.611-1.593-2.173-2.61-3.926-2.543-1.73.078-3.214 1.24-3.678 2.88l-10.56 37.433a4.065 4.065 0 0 0-3.021-.366c-1.576.424-2.732 1.747-2.92 3.343l-12.31 104.84-56.582 3.187c-2.003.112-3.61 1.665-3.762 3.63l-1.86 24.085-3.633-4.462a4.022 4.022 0 0 0-2.903-1.47 4.03 4.03 0 0 0-3.051 1.147l-6.999 6.879-8.114.726a4.047 4.047 0 0 0-2.176.873 167.043 167.043 0 0 0-28.961 30.006 3.89 3.89 0 0 0 .852 5.5c1.78 1.286 4.287.912 5.596-.838a159.09 159.09 0 0 1 26.645-27.815l8.325-.745a4.024 4.024 0 0 0 2.469-1.136l4.861-4.779L95.848 187a4.015 4.015 0 0 0 2.762 1.46l4.203.376a4.036 4.036 0 0 0 2.948-.913 3.908 3.908 0 0 0 1.406-2.706l2.026-26.238 56.49-3.182c1.976-.112 3.573-1.626 3.757-3.565l.172-1.828 11.498-97.918a4.036 4.036 0 0 0 1.525.003 3.977 3.977 0 0 0 3.103-2.812l9.331-33.076 14.398 37.544c.588 1.532 2.079 2.546 3.745 2.546h.004c.641 0 1.258-.151 1.806-.425l2.49 6.198a3.992 3.992 0 0 0 3.218 2.458c.371.046.744.041 1.108-.013l24.126 118.9a3.966 3.966 0 0 0 3.03 3.065 4.045 4.045 0 0 0 4.085-1.457l1.43-1.853a3.963 3.963 0 0 0 2.082 2.284l12.188 5.64 18.534 21.862c.354.416.791.757 1.285.999l8.607 4.234a4.054 4.054 0 0 0 1.788.417c1.468 0 2.881-.798 3.583-2.176.99-1.943.189-4.306-1.788-5.278" />
    <path fill="#FCEB00" d="M95.309 207.516H93.98v9.642l.664.073.52-.073.666-.144.285-.436v-8.01l-.094-.617-.713-.435Zm.666-11.275-.57-.399-.713-.073h-.711v7.504h1.185l.57-.216.286-.4.094-.688v-5.184l-.141-.544Zm5.649-3.118c.474.363.838.847 1.091 1.45l.285 2.54v3.876c0 2.32-.996 3.76-2.99 4.316.663.216 1.107.422 1.328.615.76.484 1.25 1.04 1.473 1.668.126.435.189 1.172.189 2.21v6.852c0 .63-.16 1.33-.475 2.102-.158.436-.57.884-1.233 1.342a7.224 7.224 0 0 1-2.138.653l-4.178.253H87v-29h8.927l3.608.254 2.089.87ZM115.57 197.764h-.186l-1.065 13.16h2.27l-1.019-13.16ZM117.376 221l-.51-6.198h-2.825l-.463 6.198H107l3.938-29h8.987L124 221h-6.624ZM138 217.158V221h-11v-29h6.816v25.158H138M150.48 196.676l-.182-.47-.41-.327-.501-.073h-.138l-.5.181-.138 20.81.319.29.638.105.23-.07.41-.146.273-20.3Zm5.615-3.299c.605.75.905 2.2.905 4.351v19.575l-.457 1.74c-.455 1.064-1.487 1.644-3.1 1.74l-3.875.217-2.643-.035-2.37-.4a3.278 3.278 0 0 1-1.597-.907c-.548-.458-.822-.93-.822-1.413L142 195.553c.122-.604.272-1.148.452-1.632.455-1.039 1.51-1.608 3.174-1.705l3.851-.216 2.63.109c.633.024 1.207.086 1.722.181 1.116.17 1.872.533 2.266 1.087ZM176 192v29h-6.152l-3.758-14.854-.178-.009.235 14.863H160v-29h6.147l3.706 14.464h.329V192H176M201 192v29h-5.966l.186-17.146h-.186L192.35 221h-3.607l-2.682-17.146h-.234l.234 17.146H180v-29h7.888l2.504 13.917h.265l2.55-13.917H201M213.57 197.764h-.186l-1.064 13.16h2.268l-1.019-13.16ZM215.376 221l-.51-6.198h-2.827l-.462 6.198H205l3.937-29h8.988L222 221h-6.623ZM242 192v29h-6.153l-3.757-14.854-.177-.009.235 14.863H226v-29h6.148l3.704 14.464h.33V192H242M253.482 196.676l-.184-.47-.41-.327-.5-.073h-.137l-.503.181-.137 20.81.318.29.638.105.23-.07.41-.146.275-20.3Zm5.611-3.299c.605.75.907 2.2.907 4.351v19.575l-.458 1.74c-.453 1.064-1.486 1.644-3.098 1.74l-3.877.217-2.643-.035-2.37-.4a3.275 3.275 0 0 1-1.596-.907c-.548-.458-.822-.93-.822-1.413L245 195.553c.12-.604.272-1.148.453-1.632.452-1.039 1.51-1.608 3.174-1.705l3.85-.216 2.629.109c.634.024 1.207.086 1.722.181 1.118.17 1.872.533 2.265 1.087Z" />
  </g>
</svg>
