<svg width="256" height="256" xmlns="http://www.w3.org/2000/svg"><defs><clipPath clipPathUnits="userSpaceOnUse" id="a"><path d="M0 192h192V0H0Z"/></clipPath></defs><g clip-path="url(#a)" transform="matrix(1.33333 0 0 -1.33333 0 256)"><path d="M0 0c-2 8-8 14-16 16-13 3-68 3-68 3s-55 0-69-3c-8-2-14-8-16-16-3-14-3-43-3-43s0-28 3-42c2-8 8-14 16-16 14-4 69-4 69-4s55 0 68 4c8 2 14 8 16 16 4 14 4 42 4 42S4-14 0 0" style="fill:red;fill-opacity:1;fill-rule:nonzero;stroke:none" transform="translate(180 139)"/><path d="m0 0 46 26L0 52Z" style="fill:#fff;fill-opacity:1;fill-rule:nonzero;stroke:none" transform="translate(78 70)"/></g></svg>